<?xml version="1.0" encoding="UTF-8"?>
<svg width="23px" height="39px" viewBox="0 0 23 39" version="1.1" xmlns="http://www.w3.org/2000/svg" xmlns:xlink="http://www.w3.org/1999/xlink">
    <title>material_bolt</title>
    <g id="页面-1" stroke="none" stroke-width="1" fill="none" fill-rule="evenodd">
        <g id="项目首页左边导航版" transform="translate(-339.000000, -827.000000)" fill="#1185A7">
            <g id="Features/1/White" transform="translate(170.000000, 761.000000)">
                <g id="feature-1" transform="translate(0.000000, 66.000000)">
                    <path d="M180.8,0 C180.439744,0 180.117553,0.227147424 179.992308,0.569318225 L169.865865,20.0181818 C169.692929,20.2957978 169.60078,20.6171879 169.6,20.9454545 C169.6,21.9094425 170.371448,22.6909091 171.323077,22.6909091 L179.938462,22.6909091 L179.938462,37.5272727 C179.938462,38.0092667 180.324185,38.4000006 180.8,38.4000006 C181.123277,38.4000006 181.419559,38.2174101 181.567307,37.926137 L191.767788,18.3306816 L191.764423,18.3272727 C191.917308,18.0623951 191.998563,17.7613727 192,17.4545455 C192,16.4905575 191.228552,15.7090909 190.276923,15.7090909 L181.661538,15.7090909 L181.661538,0.872727273 C181.661538,0.390733309 181.275815,0 180.8,0 Z" id="material_bolt"></path>
                </g>
            </g>
        </g>
    </g>
</svg>